<svg width="395" height="392" viewBox="0 0 395 392" fill="none" xmlns="http://www.w3.org/2000/svg">
<g clip-path="url(#clip0_2005_12)">
<path d="M315.98 276.882C274.82 281.642 236.026 273.667 197.988 259.995C172.283 250.756 147.092 240.108 120.88 232.252C101.438 226.425 81.7671 222.521 61.3624 223.598C39.7419 224.738 21.5817 231.867 11.5829 252.843C11.4238 253.177 11.1867 253.492 10.9227 253.752C10.6644 254.006 10.325 254.177 9.16826 254.967C6.71381 248.152 4.09147 241.553 5.32444 234.493C10.1161 207.058 27.6693 190.957 53.048 182.332C71.5928 176.029 90.8232 175.772 110.084 177.108C132.08 178.634 153.496 184.488 175.444 186.375C211.419 189.468 245.879 185.77 275.962 163.106C296.069 147.957 307.695 127.192 315.743 103.964C318.579 95.7766 321.285 87.5372 325.448 79.8703C328.368 74.4945 332.158 69.9399 336.784 65.92C340.641 62.5687 343.424 62.9579 346.73 66.7728C365.149 88.027 378.604 111.98 386.671 138.945C395.534 168.567 396.102 198.643 391.789 229.019C390.358 239.099 383.92 245.984 376.86 252.254C361.555 265.848 342.907 272.115 323.168 275.73C320.946 276.137 318.711 276.475 315.98 276.882ZM324.53 221.917C324.294 220.815 324.079 219.708 323.816 218.612C321.941 210.794 315.379 205.192 307.428 204.612C300.431 204.102 293.022 208.922 290.097 215.889C286.985 223.301 288.94 231.75 295.179 236.756C300.173 240.764 305.778 242.268 312.039 239.913C319.948 236.938 323.831 231.022 324.53 221.917Z" fill="#3385FF"/>
<path d="M241.252 334.634C216.526 331.084 192.309 326.929 167.725 328.046C145.597 329.05 123.794 332.07 104.104 343.507C98.9872 346.479 94.4916 350.163 90.595 354.556C88.613 356.791 86.8441 357.176 84.3041 355.397C56.3138 335.79 33.8724 311.255 18.3431 280.704C13.1945 270.575 16.4568 259.364 26.3688 251.227C36.5435 242.873 48.6098 239.473 61.4886 238.945C86.7768 237.909 110.784 244.382 134.43 252.304C166.04 262.895 196.927 275.622 229.136 284.444C246.923 289.316 264.554 294.922 282.982 297.015C317.784 300.968 349.338 293.904 375.664 269.371C376.491 268.6 377.324 267.832 378.207 267.128C378.459 266.928 378.898 266.962 379.322 266.873C381.028 268.206 379.764 269.672 379.255 270.851C372.665 286.113 364.795 300.603 355.283 314.335C344.634 329.709 329.108 335.3 311.991 337.979C292.259 341.068 272.541 339.303 252.913 336.35C249.193 335.791 245.472 335.23 241.252 334.634ZM82.323 281.329C76.0605 294.342 85.7845 304.84 93.8677 305.752C102.732 306.752 110.029 302.222 112.554 293.863C114.684 286.814 110.58 277.757 103.724 274.374C95.8512 270.49 88.5263 272.661 82.323 281.329ZM145.446 305.404C149.007 306.306 152.144 305.797 154.438 302.63C156.091 300.349 156.67 297.896 155.31 295.27C153.718 292.198 151.289 290.383 147.688 290.571C144.534 290.735 142.312 292.519 141.352 295.324C140.016 299.23 140.829 302.725 145.446 305.404Z" fill="#3385FF"/>
<path d="M229.444 19.1217C224.607 28.9278 223.209 39.237 221.304 49.3883C217.182 71.3562 208.29 90.287 188.169 102.161C171.159 112.199 152.454 110.906 138.118 97.443C123.791 83.9882 107.923 75.796 87.7945 77.7466C75.2994 78.9575 63.4024 82.3239 51.9647 87.4217C44.8843 90.5775 38.3125 94.6289 31.7678 98.7463C30.2976 99.6711 29.1185 101.524 25.9961 100.739C48.6604 61.0054 80.3083 31.9876 122.309 14.6109C160.765 -1.29948 200.354 -3.95592 241.043 5.37462C236.596 9.60387 232.236 13.4269 229.444 19.1217Z" fill="#3385FF"/>
<path d="M36.5484 110.102C55.2262 100.087 72.89 100.754 90.2175 112.595C104.974 122.679 121.186 128.992 139.326 129.084C177.127 129.275 211.469 106.218 225.331 71.0374C230.299 58.4303 234.159 45.3905 238.942 32.7053C241.619 25.6042 245.792 19.2806 251.756 14.3335C256.143 10.6948 260.647 9.33314 266.331 11.8508C273.835 15.1747 281.506 18.0832 288.462 22.3159C288.083 23.3297 288.044 23.8837 287.819 23.974C266.391 32.5628 255.242 49.9972 248.207 70.6624C244.206 82.4138 241.336 94.5455 237.522 106.366C225.294 144.264 200.849 157.823 165.045 160.239C145.189 161.578 125.614 157.96 105.919 156.358C76.8607 153.994 49.4143 158.196 26.5724 178.367C16.524 187.24 9.03735 198.016 4.16449 210.553C3.63519 211.914 3.50528 213.531 1.87005 214.246C-0.119718 213.276 0.323269 211.384 0.247003 209.808C-0.921446 185.675 2.0422 162.071 9.4239 139.043C13.8391 125.269 24.8559 117.643 36.5484 110.102Z" fill="#3385FF"/>
<path d="M141.788 349.811C163.316 349.425 183.435 354.358 203.205 360.462C226.128 367.541 249.145 373.522 273.329 373.605C274.047 373.608 274.849 373.601 275.183 374.7C274.139 376.938 271.662 377.161 269.712 377.986C238.985 390.985 207.028 394.385 174.051 390.42C151.191 387.671 129.553 381.104 109.098 370.626C101.965 366.973 101.643 364.922 107.869 359.789C117.508 351.841 129.145 349.916 141.788 349.811Z" fill="#3385FF"/>
<path d="M263.29 156.005C254.624 161.857 245.731 166.298 235.967 168.833C232.498 169.734 228.817 169.865 227.061 166.145C225.121 162.037 228.112 159.405 231.148 157.322C234.712 154.876 238.664 152.966 242.086 150.35C255.33 140.225 261 126.343 261.328 110.031C261.461 103.398 261.962 96.8593 264.562 90.6761C268.626 81.0109 276.367 76.3635 285.382 78.0654C293.44 79.5867 298.864 87.0233 299.445 96.9247C300.239 110.478 294.895 122.014 287.361 132.593C280.891 141.677 273.036 149.579 263.29 156.005Z" fill="#3385FF"/>
<path d="M284 196H347V255H284V196Z" fill="#3385FF"/>
<path d="M75 265H138L167 299L138 324H75V265Z" fill="#3385FF"/>
</g>
<defs>
<clipPath id="clip0_2005_12">
<rect width="395" height="392" fill="white"/>
</clipPath>
</defs>
</svg>
